<svg width="612" height="76" viewBox="0 0 612 76" fill="none" xmlns="http://www.w3.org/2000/svg">
<path fill-rule="evenodd" clip-rule="evenodd" d="M281.449 17.6777C280.082 18.9902 278.045 20.3984 275.338 21.9023C274.354 19.7695 273.547 17.7051 272.918 15.709C272.316 13.6855 272.016 11.8125 272.016 10.0898C272.016 7.875 272.576 6.09766 273.697 4.75781C274.846 3.41797 276.459 2.74805 278.537 2.74805C280.451 2.74805 282.023 3.4043 283.254 4.7168C284.512 6.0293 285.141 7.75195 285.141 9.88477C285.141 12.7285 283.91 15.3262 281.449 17.6777ZM276.076 52.1719C273.889 53.0469 272.029 53.4844 270.498 53.4844C267.326 53.4844 264.729 52.3496 262.705 50.0801C260.682 47.7832 259.67 45.0762 259.67 41.959C259.67 38.5684 260.818 35.5879 263.115 33.0176C264.619 31.3496 266.779 29.6816 269.596 28.0137C272.658 33.5918 274.9 37.502 276.322 39.7441C277.771 41.9863 279.781 44.748 282.352 48.0293C280.355 49.916 278.264 51.2969 276.076 52.1719ZM267.094 22.0664C267.559 23.3516 267.969 24.3633 268.324 25.1016L265.125 26.9473C260.914 29.3262 257.633 31.9648 255.281 34.8633C252.957 37.7344 251.795 41.0703 251.795 44.8711C251.795 48.918 253.094 52.1172 255.691 54.4688C258.316 56.793 261.816 57.9551 266.191 57.9551C270.129 57.9551 273.738 57.1348 277.02 55.4941C279.535 54.291 282.023 52.5547 284.484 50.2852C287.082 52.7734 289.16 54.5098 290.719 55.4941C293.316 57.1621 295.941 57.9961 298.594 57.9961C299.66 57.9961 300.754 57.832 301.875 57.5039C303.762 56.9844 305.416 56.0957 306.838 54.8379C307.74 54.0449 308.684 52.9512 309.668 51.5566C310.652 50.1348 311.227 49.0957 311.391 48.4395L310.16 47.4551C308.875 49.0137 307.85 50.0664 307.084 50.6133C305.826 51.4883 304.295 51.9258 302.49 51.9258C299.455 51.9258 296.42 50.627 293.385 48.0293C291.99 46.7168 290.746 45.418 289.652 44.1328C291.703 41.5352 293.234 39.498 294.246 38.0215C295.285 36.5449 296.57 34.4121 298.102 31.623L300.234 27.7266C301.273 25.8125 302.531 24.4863 304.008 23.748C304.91 23.3105 306.277 22.9824 308.109 22.7637V21H290.021V22.7637C291.771 22.9004 293.002 23.1465 293.713 23.502C294.834 24.0762 295.395 25.1289 295.395 26.6602C295.395 28.1641 294.834 30.1738 293.713 32.6895C292.592 35.2051 290.582 38.2402 287.684 41.7949C284.977 38.2676 283.049 35.6016 281.9 33.7969C280.779 31.9922 279.016 28.9023 276.609 24.5273C279.781 23.1328 282.748 21.2871 285.51 18.9902C288.271 16.6934 289.652 13.7402 289.652 10.1309C289.652 7.04102 288.572 4.58008 286.412 2.74805C284.252 0.916016 281.49 0 278.127 0C274.436 0 271.387 1.29883 268.98 3.89648C266.574 6.49414 265.371 9.76172 265.371 13.6992C265.371 14.5469 265.439 15.4219 265.576 16.3242C265.713 17.1992 265.891 18.0742 266.109 18.9492C266.301 19.7422 266.629 20.7812 267.094 22.0664ZM340.225 39.8672C341.646 43.6406 343.314 46.6484 345.229 48.8906C348.564 52.8008 352.707 54.7559 357.656 54.7559C360.336 54.7559 362.646 53.9082 364.588 52.2129C366.557 50.5176 367.541 48.1523 367.541 45.1172C367.541 42.3828 366.557 40.0039 364.588 37.9805C363.303 36.6953 360.596 34.7676 356.467 32.1973L349.289 27.7266C347.129 26.3594 345.406 24.9785 344.121 23.584C341.742 20.9316 340.553 18.0059 340.553 14.8066C340.553 10.5684 341.961 7.04102 344.777 4.22461C347.594 1.4082 351.326 0 355.975 0C357.889 0 360.186 0.478516 362.865 1.43555C365.572 2.36523 367.117 2.83008 367.5 2.83008C368.539 2.83008 369.25 2.58398 369.633 2.0918C370.043 1.59961 370.357 0.902344 370.576 0H372.299L374.145 17.8828H372.135C370.768 12.4961 368.566 8.73633 365.531 6.60352C362.523 4.4707 359.543 3.4043 356.59 3.4043C354.293 3.4043 352.283 4.08789 350.561 5.45508C348.865 6.79492 348.018 8.66797 348.018 11.0742C348.018 13.2344 348.674 15.0801 349.986 16.6113C351.299 18.1699 353.336 19.7969 356.098 21.4922L363.48 26.0449C368.102 28.8887 371.355 31.5 373.242 33.8789C375.102 36.2852 376.031 39.1289 376.031 42.4102C376.031 46.8125 374.363 50.4902 371.027 53.4434C367.719 56.3965 363.48 57.873 358.312 57.873C355.715 57.873 352.994 57.3809 350.15 56.3965C347.334 55.4121 345.721 54.9199 345.311 54.9199C344.326 54.9199 343.656 55.2207 343.301 55.8223C342.973 56.4238 342.754 57.0664 342.645 57.75H340.799L338.297 39.8672H340.225ZM469.301 21.9023H477.668V18.9492H469.383V8.85938C469.383 8.50391 469.342 8.29883 469.26 8.24414C469.205 8.18945 469 8.16211 468.645 8.16211C465.555 12.3184 463.586 14.8887 462.738 15.873C461.918 16.8301 460.564 18.0879 458.678 19.6465C458.021 20.1934 457.625 20.5488 457.488 20.7129C457.379 20.8496 457.324 21.0547 457.324 21.3281C457.324 21.4648 457.352 21.5742 457.406 21.6562C457.488 21.7383 457.598 21.8203 457.734 21.9023H462.205V46.7578C462.205 49.5195 462.52 51.6797 463.148 53.2383C464.297 56.1094 466.484 57.5449 469.711 57.5449C471.188 57.5449 472.719 57.1484 474.305 56.3555C475.891 55.5625 477.395 54.209 478.816 52.2949L479.719 51.0645L478.652 50.1621C477.723 51.1738 476.889 51.9121 476.15 52.377C475.439 52.8418 474.592 53.0742 473.607 53.0742C471.693 53.0742 470.408 52.1309 469.752 50.2441C469.396 49.1777 469.219 47.6055 469.219 45.5273L469.301 21.9023ZM588.082 43.8457H586.729V57.0938H587.795C587.932 56.7656 588.123 56.4922 588.369 56.2734C588.615 56.0273 588.902 55.9043 589.23 55.9043C589.613 55.9043 590.844 56.1777 592.922 56.7246C595 57.2715 596.859 57.5449 598.5 57.5449C602.41 57.5449 605.568 56.5195 607.975 54.4688C610.408 52.418 611.625 49.7793 611.625 46.5527C611.625 42.3418 608.713 38.6504 602.889 35.4785L597.475 32.5664C593.701 30.5977 591.814 28.3555 591.814 25.8398C591.814 24.2539 592.361 22.873 593.455 21.6973C594.549 20.5215 596.053 19.9336 597.967 19.9336C601.166 19.9336 603.613 21.3008 605.309 24.0352C606.238 25.5117 606.977 27.5762 607.523 30.2285H608.795L608.508 18.7852H607.523C607.359 19.0859 607.168 19.3047 606.949 19.4414C606.73 19.5781 606.375 19.6465 605.883 19.6465C605.664 19.6465 604.68 19.373 602.93 18.8262C601.207 18.2793 599.621 18.0059 598.172 18.0059C594.863 18.0059 592.115 18.9902 589.928 20.959C587.74 22.9277 586.646 25.4434 586.646 28.5059C586.646 30.9941 587.439 33.1543 589.025 34.9863C590.611 36.8184 593.086 38.6367 596.449 40.4414L601.043 43.0664C602.766 44.0781 603.969 45.1172 604.652 46.1836C605.336 47.25 605.678 48.3574 605.678 49.5059C605.678 51.3105 605.076 52.7871 603.873 53.9355C602.697 55.0566 601.084 55.6172 599.033 55.6172C595.342 55.6172 592.539 54.0859 590.625 51.0234C589.559 49.3555 588.711 46.9629 588.082 43.8457ZM522.621 54.6328C521.91 55.1523 520.488 55.5078 518.355 55.6992V56.7656H537.018V55.6992C534.584 55.6719 532.998 55.2617 532.26 54.4688C531.549 53.6758 531.193 52.2402 531.193 50.1621V27.7266C532.424 26.25 533.846 25.0605 535.459 24.1582C537.072 23.2285 538.713 22.7637 540.381 22.7637C543.307 22.7637 545.221 24.1035 546.123 26.7832C546.67 28.3691 546.943 31.2676 546.943 35.4785V46.9629C546.943 50.5996 546.588 52.8828 545.877 53.8125C545.166 54.7422 543.512 55.3711 540.914 55.6992V56.7656H559.74V55.6992C557.225 55.6172 555.57 55.002 554.777 53.8535C554.012 52.7051 553.629 51.0234 553.629 48.8086V27.8086C555.105 26.3047 556.35 25.2109 557.361 24.5273C559.111 23.3516 560.875 22.7637 562.652 22.7637C565.605 22.7637 567.588 23.8848 568.6 26.127C569.174 27.3848 569.461 29.3398 569.461 31.9922V49.6699C569.461 51.9395 569.078 53.4434 568.312 54.1816C567.574 54.9199 566.016 55.3984 563.637 55.6172V56.7656H582.135V55.6992C579.893 55.4805 578.334 55.0293 577.459 54.3457C576.611 53.6348 576.188 52.3086 576.188 50.3672V33.3457C576.188 28.9707 575.764 25.7715 574.916 23.748C573.439 20.166 570.5 18.375 566.098 18.375C563.391 18.375 560.738 19.2227 558.141 20.918C556.637 21.9023 554.873 23.4199 552.85 25.4707C552.275 23.6934 551.551 22.2852 550.676 21.2461C549.008 19.332 546.766 18.375 543.949 18.375C541.871 18.375 539.848 18.8535 537.879 19.8105C535.91 20.7402 533.572 22.4355 530.865 24.8965V19.3594C530.865 18.9766 530.852 18.7168 530.824 18.5801C530.797 18.4434 530.715 18.375 530.578 18.375C530.441 18.375 529.156 18.8398 526.723 19.7695C524.289 20.6992 522.539 21.3418 521.473 21.6973L518.52 22.6816V24.1172C518.902 23.9805 519.23 23.8848 519.504 23.8301C519.805 23.7754 520.242 23.748 520.816 23.748C522.047 23.748 522.922 24.0625 523.441 24.6914C523.988 25.3203 524.262 26.6465 524.262 28.6699V49.875C524.262 52.2539 523.715 53.8398 522.621 54.6328ZM498.914 18.293C502.77 18.293 506.146 19.6328 509.045 22.3125C511.943 24.9648 513.393 28.7383 513.393 33.6328H487.348C487.621 39.9766 489.057 44.5977 491.654 47.4961C494.252 50.3945 497.328 51.8438 500.883 51.8438C503.754 51.8438 506.174 51.0918 508.143 49.5879C510.111 48.084 511.93 45.9512 513.598 43.1895L515.033 43.6816C513.912 47.1543 511.807 50.3672 508.717 53.3203C505.654 56.2734 501.895 57.75 497.438 57.75C492.297 57.75 488.318 55.8086 485.502 51.9258C482.713 48.043 481.318 43.5723 481.318 38.5137C481.318 33.0176 482.945 28.2734 486.199 24.2812C489.453 20.2891 493.691 18.293 498.914 18.293ZM496.535 21.2871C493.418 21.2871 491.039 22.668 489.398 25.4297C488.523 26.9062 487.895 28.7656 487.512 31.0078H504.82C504.52 28.2734 504 26.2363 503.262 24.8965C501.922 22.4902 499.68 21.2871 496.535 21.2871ZM427.916 43.8457H429.27C429.898 46.9629 430.746 49.3555 431.812 51.0234C433.727 54.0859 436.529 55.6172 440.221 55.6172C442.271 55.6172 443.885 55.0566 445.061 53.9355C446.264 52.7871 446.865 51.3105 446.865 49.5059C446.865 48.3574 446.523 47.25 445.84 46.1836C445.156 45.1172 443.953 44.0781 442.23 43.0664L437.637 40.4414C434.273 38.6367 431.799 36.8184 430.213 34.9863C428.627 33.1543 427.834 30.9941 427.834 28.5059C427.834 25.4434 428.928 22.9277 431.115 20.959C433.303 18.9902 436.051 18.0059 439.359 18.0059C440.809 18.0059 442.395 18.2793 444.117 18.8262C445.867 19.373 446.852 19.6465 447.07 19.6465C447.562 19.6465 447.918 19.5781 448.137 19.4414C448.355 19.3047 448.547 19.0859 448.711 18.7852H449.695L449.982 30.2285H448.711C448.164 27.5762 447.426 25.5117 446.496 24.0352C444.801 21.3008 442.354 19.9336 439.154 19.9336C437.24 19.9336 435.736 20.5215 434.643 21.6973C433.549 22.873 433.002 24.2539 433.002 25.8398C433.002 28.3555 434.889 30.5977 438.662 32.5664L444.076 35.4785C449.9 38.6504 452.812 42.3418 452.812 46.5527C452.812 49.7793 451.596 52.418 449.162 54.4688C446.756 56.5195 443.598 57.5449 439.688 57.5449C438.047 57.5449 436.188 57.2715 434.109 56.7246C432.031 56.1777 430.801 55.9043 430.418 55.9043C430.09 55.9043 429.803 56.0273 429.557 56.2734C429.311 56.4922 429.119 56.7656 428.982 57.0938H427.916V43.8457ZM400.025 19.0723H382.717V20.2207C384.084 20.4121 385.109 20.8359 385.793 21.4922C386.504 22.1211 387.324 23.4473 388.254 25.4707L401.379 53.8535C401.488 54.127 401.584 54.4414 401.666 54.7969C401.748 55.1523 401.789 55.4531 401.789 55.6992C401.789 56.9023 400.941 59.2812 399.246 62.8359C397.551 66.3906 395.938 68.168 394.406 68.168C393.805 68.168 392.793 67.9082 391.371 67.3887C389.977 66.8691 388.924 66.6094 388.213 66.6094C386.982 66.6094 385.957 66.9512 385.137 67.6348C384.344 68.3457 383.947 69.248 383.947 70.3418C383.947 72.0098 384.617 73.2266 385.957 73.9922C387.297 74.7578 388.732 75.1406 390.264 75.1406C393.408 75.1406 396.006 73.8145 398.057 71.1621C400.107 68.5098 402.254 64.2305 404.496 58.3242L417.416 24.1172C417.826 22.9961 418.305 22.1211 418.852 21.4922C419.426 20.8633 420.273 20.4805 421.395 20.3438V19.0723H410.115V20.3438L411.387 20.4258C412.152 20.4805 412.781 20.6719 413.273 21C413.766 21.3281 414.012 21.8477 414.012 22.5586C414.012 22.832 413.916 23.3516 413.725 24.1172C413.561 24.8828 413.438 25.375 413.355 25.5938L405.645 47.0449L396.047 25.7578C395.691 24.9648 395.445 24.377 395.309 23.9941C395.172 23.584 395.104 23.1875 395.104 22.8047C395.104 21.7656 395.732 21.0684 396.99 20.7129C397.646 20.4941 398.658 20.3711 400.025 20.3438V19.0723ZM186.949 55.6172C188.891 55.3711 190.244 54.8926 191.01 54.1816C191.803 53.4434 192.199 51.8164 192.199 49.3008V28.5059C192.199 26.7559 192.035 25.5254 191.707 24.8145C191.188 23.7754 190.121 23.2559 188.508 23.2559C188.262 23.2559 188.002 23.2695 187.729 23.2969C187.482 23.3242 187.168 23.3652 186.785 23.4199V21.9844C187.906 21.6562 190.559 20.8086 194.742 19.4414L198.598 18.1699C198.789 18.1699 198.898 18.2383 198.926 18.375C198.98 18.5117 199.008 18.7031 199.008 18.9492V24.9785C201.523 22.627 203.492 21.0137 204.914 20.1387C207.047 18.7988 209.262 18.1289 211.559 18.1289C213.418 18.1289 215.113 18.6621 216.645 19.7285C219.598 21.8066 221.074 25.5117 221.074 30.8438V49.998C221.074 51.9668 221.471 53.3887 222.264 54.2637C223.057 55.1387 224.383 55.5898 226.242 55.6172V56.7656H208.729V55.6172C210.725 55.3438 212.119 54.7969 212.912 53.9766C213.705 53.1289 214.102 51.3105 214.102 48.5215V31.0078C214.102 28.6562 213.664 26.7148 212.789 25.1836C211.914 23.625 210.301 22.8457 207.949 22.8457C206.336 22.8457 204.695 23.3926 203.027 24.4863C202.098 25.1152 200.895 26.1543 199.418 27.6035V50.5723C199.418 52.541 199.855 53.8672 200.73 54.5508C201.605 55.207 202.986 55.5625 204.873 55.6172V56.7656H186.949V55.6172ZM150.732 23.9531C147.287 27.6992 145.564 32.293 145.564 37.7344C145.564 43.5586 147.383 48.3984 151.02 52.2539C154.656 56.1094 159.1 58.0371 164.35 58.0371C169.818 58.0371 174.275 56.0273 177.721 52.0078C181.166 47.9883 182.889 43.2578 182.889 37.8164C182.889 31.9102 181.111 27.1797 177.557 23.625C174.002 20.0703 169.518 18.293 164.104 18.293C158.662 18.293 154.205 20.1797 150.732 23.9531ZM157.336 22.8867C158.922 21.4648 160.795 20.7539 162.955 20.7539C166.947 20.7539 169.996 22.8457 172.102 27.0293C174.207 31.2129 175.26 35.6699 175.26 40.4004C175.26 44.9668 174.426 48.6582 172.758 51.4746C171.117 54.291 168.766 55.6992 165.703 55.6992C161.793 55.6992 158.73 53.5938 156.516 49.3828C154.328 45.1719 153.234 40.6328 153.234 35.7656C153.234 29.668 154.602 25.375 157.336 22.8867ZM115.049 43.8457H116.402C117.031 46.9629 117.879 49.3555 118.945 51.0234C120.859 54.0859 123.662 55.6172 127.354 55.6172C129.404 55.6172 131.018 55.0566 132.193 53.9355C133.396 52.7871 133.998 51.3105 133.998 49.5059C133.998 48.3574 133.656 47.25 132.973 46.1836C132.289 45.1172 131.086 44.0781 129.363 43.0664L124.77 40.4414C121.406 38.6367 118.932 36.8184 117.346 34.9863C115.76 33.1543 114.967 30.9941 114.967 28.5059C114.967 25.4434 116.061 22.9277 118.248 20.959C120.436 18.9902 123.184 18.0059 126.492 18.0059C127.941 18.0059 129.527 18.2793 131.25 18.8262C133 19.373 133.984 19.6465 134.203 19.6465C134.695 19.6465 135.051 19.5781 135.27 19.4414C135.488 19.3047 135.68 19.0859 135.844 18.7852H136.828L137.115 30.2285H135.844C135.297 27.5762 134.559 25.5117 133.629 24.0352C131.934 21.3008 129.486 19.9336 126.287 19.9336C124.373 19.9336 122.869 20.5215 121.775 21.6973C120.682 22.873 120.135 24.2539 120.135 25.8398C120.135 28.3555 122.021 30.5977 125.795 32.5664L131.209 35.4785C137.033 38.6504 139.945 42.3418 139.945 46.5527C139.945 49.7793 138.729 52.418 136.295 54.4688C133.889 56.5195 130.73 57.5449 126.82 57.5449C125.18 57.5449 123.32 57.2715 121.242 56.7246C119.164 56.1777 117.934 55.9043 117.551 55.9043C117.223 55.9043 116.936 56.0273 116.689 56.2734C116.443 56.4922 116.252 56.7656 116.115 57.0938H115.049V43.8457ZM88.1016 54.0996C87.2812 54.7559 85.6133 55.1934 83.0977 55.4121V56.7656H103.318V55.4121C100.775 55.4668 98.957 55.043 97.8633 54.1406C96.7695 53.2109 96.2227 51.5703 96.2227 49.2188V30.7207C96.2227 29.0801 96.9199 27.4941 98.3145 25.9629C99.709 24.4043 100.885 23.625 101.842 23.625C102.443 23.625 103.264 24.1035 104.303 25.0605C105.369 26.0176 106.422 26.4961 107.461 26.4961C108.473 26.4961 109.307 26.1133 109.963 25.3477C110.646 24.582 110.988 23.6387 110.988 22.5176C110.988 21.2598 110.551 20.2207 109.676 19.4004C108.801 18.5527 107.666 18.1289 106.271 18.1289C104.521 18.1289 102.826 18.8125 101.186 20.1797C99.5723 21.5469 97.8906 23.4473 96.1406 25.8809V19.1543C96.1406 18.7168 96.1133 18.4297 96.0586 18.293C96.0312 18.1562 95.9219 18.0879 95.7305 18.0879C94.2812 18.7441 92.873 19.332 91.5059 19.8516C90.877 20.0977 89.7422 20.5078 88.1016 21.082C86.4609 21.6562 84.8613 22.2168 83.3027 22.7637V24.1172C83.7949 24.0078 84.2598 23.9258 84.6973 23.8711C85.1621 23.7891 85.5312 23.748 85.8047 23.748C87.1445 23.748 88.0605 24.3359 88.5527 25.5117C89.0723 26.6602 89.332 28.5879 89.332 31.2949V49.793C89.332 51.9805 88.9219 53.416 88.1016 54.0996ZM69.4805 34.043C66.3359 35.082 63.7383 36.2305 61.6875 37.4883C57.75 39.9219 55.7812 42.6836 55.7812 45.7734C55.7812 48.2617 56.6016 50.0938 58.2422 51.2695C59.3086 52.0352 60.498 52.418 61.8105 52.418C63.6152 52.418 65.3379 51.9121 66.9785 50.9004C68.6465 49.8887 69.4805 48.6035 69.4805 47.0449V34.043ZM48.4805 48.6035C48.4805 44.6387 50.4629 41.3301 54.4277 38.6777C56.9434 37.0371 61.9609 34.8086 69.4805 31.9922V28.5059C69.4805 25.7168 69.207 23.7754 68.6602 22.6816C67.7305 20.8496 65.8027 19.9336 62.877 19.9336C61.4824 19.9336 60.1562 20.2891 58.8984 21C57.6406 21.7383 57.0117 22.75 57.0117 24.0352C57.0117 24.3633 57.0801 24.9238 57.2168 25.7168C57.3535 26.4824 57.4219 26.9746 57.4219 27.1934C57.4219 28.7246 56.916 29.791 55.9043 30.3926C55.3301 30.748 54.6465 30.9258 53.8535 30.9258C52.623 30.9258 51.6797 30.5293 51.0234 29.7363C50.3672 28.916 50.0391 28.0137 50.0391 27.0293C50.0391 25.1152 51.2148 23.1191 53.5664 21.041C55.9453 18.9355 59.418 17.8828 63.9844 17.8828C69.2891 17.8828 72.8848 19.6055 74.7715 23.0508C75.7832 24.9375 76.2891 27.6855 76.2891 31.2949V47.7422C76.2891 49.3281 76.3984 50.4219 76.6172 51.0234C76.9727 52.0898 77.7109 52.623 78.832 52.623C79.4609 52.623 79.9805 52.5273 80.3906 52.3359C80.8008 52.1445 81.5117 51.6797 82.5234 50.9414V53.0742C81.6484 54.1406 80.7051 55.0156 79.6934 55.6992C78.1621 56.7383 76.6035 57.2578 75.0176 57.2578C73.1582 57.2578 71.8047 56.6562 70.957 55.4531C70.1367 54.25 69.6855 52.8145 69.6035 51.1465C67.5254 52.9512 65.748 54.291 64.2715 55.166C61.7832 56.6426 59.418 57.3809 57.1758 57.3809C54.8242 57.3809 52.7871 56.5605 51.0645 54.9199C49.3418 53.252 48.4805 51.1465 48.4805 48.6035ZM28.3418 5.86523C32.7715 7.7793 34.9863 11.3066 34.9863 16.4473C34.9863 21.916 32.9766 25.6484 28.957 27.6445C26.7422 28.7383 23.707 29.2852 19.8516 29.2852C19.4141 29.2852 18.9629 29.2715 18.498 29.2441C18.0332 29.2168 17.0488 29.1348 15.5449 28.998V7.0957C15.5449 5.91992 15.7363 5.16797 16.1191 4.83984C16.5293 4.48438 17.5957 4.30664 19.3184 4.30664C22.9551 4.30664 25.9629 4.82617 28.3418 5.86523ZM5.98828 53.3613C5.19531 54.3184 3.19922 54.9473 0 55.248V56.7656H23.502V55.248C20.1387 55.002 17.9648 54.4688 16.9805 53.6484C16.0234 52.8281 15.5449 50.832 15.5449 47.6602V32.4023C16.2285 32.4023 17.2676 32.4297 18.6621 32.4844C20.084 32.5117 21.2461 32.5254 22.1484 32.5254C28.4375 32.5254 33.6738 31.2402 37.8574 28.6699C42.041 26.0996 44.1328 21.957 44.1328 16.2422C44.1328 11.7305 42.2461 8.09375 38.4727 5.33203C34.6992 2.57031 29.2578 1.18945 22.1484 1.18945H0V2.74805C3.00781 2.99414 4.94922 3.58203 5.82422 4.51172C6.72656 5.44141 7.17773 7.36914 7.17773 10.2949V46.6758C7.17773 50.1484 6.78125 52.377 5.98828 53.3613Z" fill="black"/>
</svg>
